<svg version="1.1" id="Layer_1" xmlns="http://www.w3.org/2000/svg" xmlns:xlink="http://www.w3.org/1999/xlink" x="0px" y="0px"
	 width="100%" viewBox="0 0 170 172" enable-background="new 0 0 170 172" xml:space="preserve">
<path fill="none" opacity="1.000000" stroke="none" 
	d="
M112.000000,173.000000 
	C74.666672,173.000000 37.833336,173.000000 1.000005,173.000000 
	C1.000003,115.666672 1.000003,58.333344 1.000002,1.000013 
	C57.666656,1.000008 114.333313,1.000008 170.999969,1.000004 
	C170.999985,58.333324 170.999985,115.666649 171.000000,172.999985 
	C151.500000,173.000000 132.000000,173.000000 112.000000,173.000000 
M117.579285,51.369236 
	C108.691246,49.360161 99.824303,47.250084 90.905640,45.387688 
	C86.882744,44.547626 85.387039,42.181984 85.402809,38.339172 
	C85.423302,33.345089 85.205147,28.346920 85.340714,23.357327 
	C85.463882,18.824081 83.381485,17.079460 78.989624,17.175886 
	C72.332802,17.322042 65.670349,17.198488 59.010357,17.216154 
	C52.364738,17.233782 51.868465,17.696255 51.855244,24.281666 
	C51.826492,38.600697 51.695934,52.922306 51.934410,67.237411 
	C52.006996,71.594566 51.142864,73.399490 46.257595,73.234596 
	C36.784714,72.914848 27.283562,73.257629 17.801466,73.557777 
	C16.216661,73.607941 13.735795,74.495552 13.345357,75.592728 
	C12.880303,76.899590 13.821552,79.178596 14.865149,80.454239 
	C17.169210,83.270599 20.064655,85.596115 22.452913,88.352303 
	C25.894356,92.323921 30.008005,96.075592 32.169487,100.699577 
	C34.719181,106.154045 38.008305,110.068336 43.228165,112.913200 
	C51.602707,117.477386 51.655071,117.722206 56.903500,109.876549 
	C59.503323,105.990189 62.586624,105.088936 66.704819,106.950531 
	C68.021950,107.545929 69.350662,108.115738 71.162193,108.911743 
	C72.908699,102.374756 74.725426,96.187965 76.169518,89.915382 
	C76.909370,86.701752 78.559532,85.680786 81.724297,85.618965 
	C92.671951,85.405113 103.258110,86.945007 113.500145,90.961067 
	C115.114395,91.594032 117.266327,91.402359 119.034393,90.999008 
	C125.653946,89.488899 132.153229,87.371521 138.822891,86.187469 
	C143.796753,85.304474 148.963623,85.508713 153.670013,85.249397 
	C152.583420,76.313126 151.738556,67.950256 150.403900,59.666298 
	C150.157883,58.139305 148.133698,56.606461 146.581680,55.630676 
	C137.895569,50.169464 128.295517,50.204296 117.579285,51.369236 
M92.316238,91.114189 
	C79.080658,90.930092 81.843040,89.525276 78.842026,101.441971 
	C78.679817,102.086090 78.415268,102.704323 78.250839,103.348015 
	C75.961266,112.310646 73.680847,121.275620 71.222885,130.928543 
	C73.577766,130.817413 75.014893,130.799683 76.442589,130.674423 
	C89.944305,129.489761 103.029961,130.363892 114.976952,137.804443 
	C115.996346,138.439316 117.976830,137.910416 119.379204,137.486588 
	C126.171745,135.433731 132.789032,132.374756 139.719055,131.321609 
	C146.805145,130.244720 154.182297,131.083145 161.348434,131.083145 
	C161.532883,129.845505 161.768326,129.318176 161.653366,128.883514 
	C158.591736,117.306732 155.624969,105.700798 152.232162,94.220963 
	C151.820709,92.828789 149.134506,91.354309 147.408508,91.230667 
	C137.926605,90.551437 128.984451,92.933418 120.210724,96.438904 
	C118.104927,97.280258 115.255302,96.947052 112.922813,96.403236 
	C106.312645,94.862068 99.793106,92.932129 92.316238,91.114189 
M90.438286,147.014618 
	C105.593529,152.775650 121.129639,152.340012 136.681259,149.405228 
	C142.960602,148.220245 148.524216,145.524185 146.785004,137.129700 
	C140.060989,137.078339 132.984375,136.591309 126.546585,140.691849 
	C120.124626,144.782288 113.986481,145.054337 107.000542,140.748276 
	C101.187096,137.164917 94.146965,135.867599 86.662384,136.549164 
	C86.917755,140.565506 85.624596,144.379990 90.438286,147.014618 
z"/>
<path fill="#EB051F" opacity="1.000000" stroke="none" 
	d="
M118.068924,51.347450 
	C128.295517,50.204296 137.895569,50.169464 146.581680,55.630676 
	C148.133698,56.606461 150.157883,58.139305 150.403900,59.666298 
	C151.738556,67.950256 152.583420,76.313126 153.670013,85.249397 
	C148.963623,85.508713 143.796753,85.304474 138.822891,86.187469 
	C132.153229,87.371521 125.653946,89.488899 119.034393,90.999008 
	C117.266327,91.402359 115.114395,91.594032 113.500145,90.961067 
	C103.258110,86.945007 92.671951,85.405113 81.724297,85.618965 
	C78.559532,85.680786 76.909370,86.701752 76.169518,89.915382 
	C74.725426,96.187965 72.908699,102.374756 71.162193,108.911743 
	C69.350662,108.115738 68.021950,107.545929 66.704819,106.950531 
	C62.586624,105.088936 59.503323,105.990189 56.903500,109.876549 
	C51.655071,117.722206 51.602707,117.477386 43.228165,112.913200 
	C38.008305,110.068336 34.719181,106.154045 32.169487,100.699577 
	C30.008005,96.075592 25.894356,92.323921 22.452913,88.352303 
	C20.064655,85.596115 17.169210,83.270599 14.865149,80.454239 
	C13.821552,79.178596 12.880303,76.899590 13.345357,75.592728 
	C13.735795,74.495552 16.216661,73.607941 17.801466,73.557777 
	C27.283562,73.257629 36.784714,72.914848 46.257595,73.234596 
	C51.142864,73.399490 52.006996,71.594566 51.934410,67.237411 
	C51.695934,52.922306 51.826492,38.600697 51.855244,24.281666 
	C51.868465,17.696255 52.364738,17.233782 59.010357,17.216154 
	C65.670349,17.198488 72.332802,17.322042 78.989624,17.175886 
	C83.381485,17.079460 85.463882,18.824081 85.340714,23.357327 
	C85.205147,28.346920 85.423302,33.345089 85.402809,38.339172 
	C85.387039,42.181984 86.882744,44.547626 90.905640,45.387688 
	C99.824303,47.250084 108.691246,49.360161 118.068924,51.347450 
z"/>
<path fill="#EB051F" opacity="1.000000" stroke="none" 
	d="
M92.777054,91.134750 
	C99.793106,92.932129 106.312645,94.862068 112.922813,96.403236 
	C115.255302,96.947052 118.104927,97.280258 120.210724,96.438904 
	C128.984451,92.933418 137.926605,90.551437 147.408508,91.230667 
	C149.134506,91.354309 151.820709,92.828789 152.232162,94.220963 
	C155.624969,105.700798 158.591736,117.306732 161.653366,128.883514 
	C161.768326,129.318176 161.532883,129.845505 161.348434,131.083145 
	C154.182297,131.083145 146.805145,130.244720 139.719055,131.321609 
	C132.789032,132.374756 126.171745,135.433731 119.379204,137.486588 
	C117.976830,137.910416 115.996346,138.439316 114.976952,137.804443 
	C103.029961,130.363892 89.944305,129.489761 76.442589,130.674423 
	C75.014893,130.799683 73.577766,130.817413 71.222885,130.928543 
	C73.680847,121.275620 75.961266,112.310646 78.250839,103.348015 
	C78.415268,102.704323 78.679817,102.086090 78.842026,101.441971 
	C81.843040,89.525276 79.080658,90.930092 92.777054,91.134750 
z"/>
<path fill="#2B1262" opacity="1.000000" stroke="none" 
	d="
M90.087143,146.847046 
	C85.624596,144.379990 86.917755,140.565506 86.662384,136.549164 
	C94.146965,135.867599 101.187096,137.164917 107.000542,140.748276 
	C113.986481,145.054337 120.124626,144.782288 126.546585,140.691849 
	C132.984375,136.591309 140.060989,137.078339 146.785004,137.129700 
	C148.524216,145.524185 142.960602,148.220245 136.681259,149.405228 
	C121.129639,152.340012 105.593529,152.775650 90.087143,146.847046 
z"/>
</svg>