<svg xmlns="http://www.w3.org/2000/svg" xmlns:xlink="http://www.w3.org/1999/xlink" version="1.0" x="0" y="0" width="2400" height="567.9709734365669" viewBox="44.4125 95.27914581298828 251.175 59.4417121887207" preserveAspectRatio="xMidYMid meet" color-interpolation-filters="sRGB"><g><defs><linearGradient id="92" x1="0%" y1="0%" x2="100%" y2="0%"><stop offset="0%" stop-color="#fa71cd"></stop> <stop offset="100%" stop-color="#9b59b6"></stop></linearGradient><linearGradient id="93" x1="0%" y1="0%" x2="100%" y2="0%"><stop offset="0%" stop-color="#f9d423"></stop> <stop offset="100%" stop-color="#f83600"></stop></linearGradient><linearGradient id="94" x1="0%" y1="0%" x2="100%" y2="0%"><stop offset="0%" stop-color="#0064d2"></stop> <stop offset="100%" stop-color="#1cb0f6"></stop></linearGradient><linearGradient id="95" x1="0%" y1="0%" x2="100%" y2="0%"><stop offset="0%" stop-color="#f00978"></stop> <stop offset="100%" stop-color="#3f51b1"></stop></linearGradient><linearGradient id="96" x1="0%" y1="0%" x2="100%" y2="0%"><stop offset="0%" stop-color="#7873f5"></stop> <stop offset="100%" stop-color="#ec77ab"></stop></linearGradient><linearGradient id="97" x1="0%" y1="0%" x2="100%" y2="0%"><stop offset="0%" stop-color="#f9d423"></stop> <stop offset="100%" stop-color="#e14fad"></stop></linearGradient><linearGradient id="98" x1="0%" y1="0%" x2="100%" y2="0%"><stop offset="0%" stop-color="#009efd"></stop> <stop offset="100%" stop-color="#2af598"></stop></linearGradient><linearGradient id="99" x1="0%" y1="0%" x2="100%" y2="0%"><stop offset="0%" stop-color="#ffcc00"></stop> <stop offset="100%" stop-color="#00b140"></stop></linearGradient><linearGradient id="100" x1="0%" y1="0%" x2="100%" y2="0%"><stop offset="0%" stop-color="#d51007"></stop> <stop offset="100%" stop-color="#ff8177"></stop></linearGradient><linearGradient id="102" x1="0%" y1="0%" x2="100%" y2="0%"><stop offset="0%" stop-color="#a2b6df"></stop> <stop offset="100%" stop-color="#0c3483"></stop></linearGradient><linearGradient id="103" x1="0%" y1="0%" x2="100%" y2="0%"><stop offset="0%" stop-color="#7ac5d8"></stop> <stop offset="100%" stop-color="#eea2a2"></stop></linearGradient><linearGradient id="104" x1="0%" y1="0%" x2="100%" y2="0%"><stop offset="0%" stop-color="#00ecbc"></stop> <stop offset="100%" stop-color="#007adf"></stop></linearGradient><linearGradient id="105" x1="0%" y1="0%" x2="100%" y2="0%"><stop offset="0%" stop-color="#b88746"></stop> <stop offset="100%" stop-color="#fdf5a6"></stop></linearGradient></defs><g fill="#1c085d" class="icon-text-wrapper icon-svg-group iconsvg" transform="translate(46.875,97.74164390563965)"><g class="iconsvg-imagesvg" transform="translate(0,0)"><g><rect fill="#1c085d" fill-opacity="0" stroke-width="2" x="0" y="0" width="60" height="54.516709371422344" class="image-rect"></rect> <svg x="0" y="0" width="60" height="54.516709371422344" filtersec="colorsb8067219509" class="image-svg-svg primary" style="overflow: visible;"><svg xmlns="http://www.w3.org/2000/svg" viewBox="7.157485008239746 0 1631.996337890625 1482.84521484375" display="block"><path fill="#eb001b" d="M 434.254 544.397 C 432.491 506.207 433.717 467.728 433.728 429.496 L 433.59 243.5 L 433.746 118.701 C 433.775 97.3681 432.526 75.1517 434.312 53.916 C 435.281 42.3879 436.49 29.5557 444.55 20.5837 C 452.472 11.7662 462.301 9.58044 473.774 9.18801 C 491.026 8.59794 508.575 9.67198 525.886 9.58884 L 667.735 9.38607 L 729.716 9.32799 C 740.449 9.4173 751.615 9.01748 762.247 10.6416 C 771.99 12.13 780 15.7611 787.179 22.5522 C 797.218 32.0487 799.827 41.9729 800.107 55.4681 C 800.803 89.0438 799.863 122.716 800.187 156.31 C 800.37 175.355 801.646 194.344 802.125 213.377 C 802.639 233.812 801.07 256.234 804.896 276.271 C 806.389 284.087 809.225 292.619 815.164 298.204 C 821.17 303.853 828.712 308.24 836.421 311.093 C 854.938 317.947 874.42 322.653 893.471 327.733 C 913.546 333.086 933.701 338.887 953.694 344.573 L 1047.78 371.298 C 1059.5 374.511 1070.88 378.589 1082.82 380.981 C 1103.83 385.387 1125.31 387.06 1146.74 385.958 C 1176.78 384.265 1207.02 381.708 1237 379.106 C 1263.38 376.816 1289.06 373.484 1315.62 376.207 C 1359.25 380.682 1402.72 398.573 1442.4 416.519 C 1459.6 424.296 1488.61 433.704 1502.11 445.836 C 1520.58 462.434 1520.23 502.842 1521.19 525.939 C 1521.97 544.661 1523.36 563.284 1524.26 581.982 C 1525.87 615.22 1526.1 642.792 1535.14 675.601 C 1538.9 689.261 1545.06 702.755 1549.88 716.102 C 1553.56 726.298 1562.57 744.118 1554.12 753.5 C 1552.86 754.893 1551.35 756.146 1549.94 757.371 C 1529.44 761.271 1508.53 758.875 1487.78 758.806 C 1465.6 758.732 1442.99 759.792 1420.82 760.862 C 1353.08 764.134 1267.42 780.593 1204.21 805.334 C 1193.44 809.55 1182.58 814.254 1172.28 819.494 C 1162.53 824.448 1153.06 830.18 1142.86 834.145 C 1119.23 826.313 1097.61 812.332 1073.96 803.885 C 979.006 769.977 881.915 758.328 781.505 760.202 C 765.532 760.5 728.803 758.187 715.88 764.324 C 710.599 766.832 708.717 773.168 707.013 778.392 C 700.043 799.756 695.857 823.082 690.561 844.973 L 664.441 949.756 C 660.418 966.418 656.383 982.818 651.676 999.312 C 650.167 1004.6 649.202 1010.57 647.086 1015.62 C 646.117 1017.93 645.951 1018.57 643.848 1019.87 C 635.493 1018.65 627.707 1009.07 620.83 1004.45 C 592.461 985.421 545.463 969.217 514.827 992.285 C 481.915 1017.07 480.549 1070.56 437.929 1090.36 C 424.343 1086.95 403.542 1089.21 388.583 1087.68 C 383.702 1087.16 378.184 1083.73 373.862 1081.56 L 374.007 1080.06 C 375.004 1079.58 375.957 1079.13 377.01 1078.77 C 377.283 1078.68 377.558 1078.6 377.833 1078.51 C 366.033 1074.46 345.985 1060.24 334.353 1053.16 L 333.315 1053.46 C 334.441 1054.38 335.497 1055.3 336.524 1056.32 L 333.005 1057.82 C 310.621 1040.59 283.869 1026.67 264.156 1006.29 C 225.205 966.021 222.788 901.33 183.759 854.878 C 167.806 835.893 147.613 820.447 128.811 804.436 C 98.4405 778.573 41.8481 727.864 20.3568 696.311 C 12.0051 684.049 4.781 667.713 7.89689 652.562 C 9.9835 642.416 16.1561 636.01 24.4506 630.324 C 31.0889 625.774 43.2802 625.025 51.1774 624.551 C 82.9153 622.649 115.593 624.177 147.415 624.182 L 324.855 624.183 C 361.218 624.172 397.767 624.955 434.094 623.287 C 432.409 599.667 433.998 568.701 434.254 544.397 z"></path><path fill="#1c085d" d="M 434.254 544.397 C 438.014 558.729 441.95 608.419 436.22 621.072 C 435.695 622.233 435.198 622.794 434.094 623.287 C 432.409 599.667 433.998 568.701 434.254 544.397 z"></path><path fill="#eb001b" d="M 1144.4 900.482 C 1161.58 894.823 1176.52 885.096 1192.4 876.672 C 1205.31 869.983 1218.52 863.894 1231.99 858.427 C 1306.1 827.878 1437.55 809.886 1516.31 820.654 C 1523.12 825.78 1528.17 831.46 1531.37 839.45 C 1540.46 862.143 1545.05 886.808 1551.48 910.318 L 1593.31 1064.61 L 1623.91 1180.46 C 1629.22 1201.14 1635.56 1221.53 1638.74 1242.73 C 1639.24 1246.08 1639.39 1249.36 1638.6 1252.68 C 1636.4 1255.52 1635.39 1256.8 1631.58 1257.33 C 1617.14 1259.33 1599.45 1253.31 1584.72 1252.27 C 1556.58 1250.28 1527.52 1250.42 1499.3 1250.93 C 1401.45 1252.73 1306.82 1263.88 1216.83 1304.78 C 1201.85 1311.59 1187.31 1320.06 1173.48 1328.96 C 1165.06 1334.38 1156.86 1341.67 1147.54 1345.36 C 1146.65 1345.71 1145.78 1346.06 1144.87 1346.38 C 1131.9 1341.72 1119.57 1330.27 1108.15 1322.58 C 1098.9 1316.35 1089.08 1310.97 1079.13 1305.93 C 1003.59 1267.66 910.806 1250.27 826.527 1248.78 C 802.264 1248.34 777.419 1247.43 753.21 1248.97 C 736.45 1250.07 719.707 1251.42 702.986 1253.01 C 688.809 1254.49 670.617 1260.06 656.638 1257.49 C 654.102 1257.03 652.851 1255.94 651.815 1253.57 C 648.746 1246.54 651.138 1235.66 652.531 1228.48 C 660.046 1189.73 671.638 1151.11 681.686 1112.91 L 725.123 948.47 L 744.24 876.487 C 748.242 860.972 751.495 843.921 757.71 829.152 C 758.088 828.254 758.564 827.48 759.143 826.701 C 759.737 825.607 760.291 824.616 761.194 823.741 C 770.662 814.568 835.815 818.874 851.6 819.392 C 867.703 818.358 883.292 821.041 899.217 822.915 C 909.871 824.169 920.612 824.794 931.217 826.44 C 985.067 835.019 1037.64 850.262 1087.73 871.817 C 1107.15 880.253 1124.82 892.443 1144.4 900.482 z"></path><path fill="#1c085d" d="M 817.769 1318.06 C 826.086 1311.87 878.271 1317.85 890.439 1319.61 L 892.326 1319.89 C 953.146 1326.34 1012.11 1344.68 1065.86 1373.86 C 1085.36 1384.48 1104.15 1399.81 1125.16 1407.12 C 1136.45 1411.05 1150.59 1410.76 1162.04 1407.71 C 1185.67 1397.54 1207.03 1382.49 1229.87 1370.7 C 1267.24 1351.41 1306.19 1339.11 1346.65 1328.29 C 1364.21 1323.71 1383.85 1320.62 1402.01 1319.95 C 1421 1315.62 1443.43 1315.72 1462.83 1315.72 C 1467.65 1315.72 1472.74 1314.9 1476.32 1318.48 C 1473.54 1351.88 1483.42 1395.97 1454.64 1420.26 C 1415.83 1453 1295.85 1476.03 1245.46 1476.22 C 1201.82 1481.69 1149.5 1484.73 1105.52 1481.56 C 1085.45 1480.34 1065.47 1479.71 1045.65 1476.07 C 1036.41 1476.53 1026.49 1474.77 1017.32 1473.71 C 973.401 1468.62 908.733 1457.21 869.042 1438.51 C 858.397 1434.54 846.909 1428.02 838.326 1420.64 C 824.361 1408.63 818.813 1393.76 817.366 1375.8 C 816.493 1361.71 813.938 1330.66 817.769 1318.06 z"></path><path fill="#eb001b" d="M1162.04 1407.71C1185.67 1397.54 1207.03 1382.49 1229.87 1370.7 1267.24 1351.41 1306.19 1339.11 1346.65 1328.29L1350.01 1329.46 1350.11 1330.78C1343.33 1336.15 1312.59 1342.08 1302.38 1345.36 1270.53 1355.65 1239.88 1369.31 1210.95 1386.12 1201.69 1391.44 1173.5 1410.3 1163.66 1409.57L1162.04 1407.71zM1108.95 1478.78C1124.88 1475.84 1159.39 1478 1177.51 1477.64 1200.69 1477.18 1222.22 1472.8 1245.46 1476.22 1201.82 1481.69 1149.5 1484.73 1105.52 1481.56L1108.95 1478.78zM817.366 1375.8 818.774 1372.35 820.226 1372.57C821.866 1376.97 821.894 1381.53 822.99 1386.05 825.904 1398.07 832.616 1410.09 842.139 1418.1 846.91 1422.12 867.094 1431.41 869.237 1435.38 869.729 1436.29 869.35 1437.66 869.042 1438.51 858.397 1434.54 846.909 1428.02 838.326 1420.64 824.361 1408.63 818.813 1393.76 817.366 1375.8zM817.769 1318.06C826.086 1311.87 878.271 1317.85 890.439 1319.61L892.326 1319.89C876.155 1327.26 838.132 1319.74 818.754 1320.37L817.769 1318.06zM1402.01 1319.95C1421 1315.62 1443.43 1315.72 1462.83 1315.72 1467.65 1315.72 1472.74 1314.9 1476.32 1318.48 1463.38 1320.35 1413.98 1325.68 1402.72 1321.99L1402.01 1319.95z"></path><path fill="#1c085d" fill-opacity=".988" d="M333.005 1057.82 336.524 1056.32C335.497 1055.3 334.441 1054.38 333.315 1053.46L334.353 1053.16C345.985 1060.24 366.033 1074.46 377.833 1078.51 377.558 1078.6 377.283 1078.68 377.01 1078.77 375.957 1079.13 375.004 1079.58 374.007 1080.06L373.862 1081.56C359.946 1074.12 346.973 1064.99 333.005 1057.82zM388.583 1087.68C403.542 1089.21 424.343 1086.95 437.929 1090.36 420.308 1096.53 405.726 1095.5 388.583 1087.68z"></path><path fill="#eb001b" fill-opacity=".012" d="M 643.466 0 L 689.488 0 C 689.299 0.0609109 689.107 0.117666 688.919 0.182733 C 677.812 4.01564 654.564 3.62571 643.466 0 z"></path></svg></svg> </g></g> <g transform="translate(67,6.860353469848633)"><g fill-rule="" class="tp-name iconsvg-namesvg" transform="translate(0,0)"><g transform="scale(1)"><g><path d="M13.11-20.94L21.21 0 17.45 0Q16.81 0 16.4-0.29 15.99-0.59 15.84-1.05L15.84-1.05 14.6-4.7 6.64-4.7 5.4-1.05Q5.26-0.65 4.84-0.32 4.43 0 3.82 0L3.82 0 0.03 0 8.13-20.94 13.11-20.94ZM9.69-13.71L7.76-8 13.48-8 11.55-13.74Q11.37-14.28 11.12-15.02 10.86-15.76 10.62-16.63L10.62-16.63Q10.39-15.75 10.15-15 9.9-14.26 9.69-13.71L9.69-13.71ZM27.36 0L22.91 0 22.91-14.9 25.67-14.9Q26.08-14.9 26.36-14.71 26.64-14.53 26.76-14.15L26.76-14.15 27-13.35Q27.38-13.74 27.78-14.06 28.18-14.38 28.65-14.62 29.11-14.86 29.65-15 30.19-15.13 30.84-15.13L30.84-15.13Q32.19-15.13 33.07-14.43 33.96-13.74 34.42-12.57L34.42-12.57Q34.79-13.26 35.33-13.75 35.87-14.24 36.49-14.54 37.12-14.84 37.81-14.99 38.51-15.13 39.2-15.13L39.2-15.13Q40.48-15.13 41.47-14.75 42.46-14.37 43.13-13.64 43.8-12.92 44.14-11.86 44.49-10.81 44.49-9.47L44.49-9.47 44.49 0 40.04 0 40.04-9.47Q40.04-11.78 38.05-11.78L38.05-11.78Q37.15-11.78 36.55-11.19 35.95-10.59 35.95-9.47L35.95-9.47 35.95 0 31.5 0 31.5-9.47Q31.5-10.75 31-11.27 30.49-11.78 29.52-11.78L29.52-11.78Q28.91-11.78 28.37-11.51 27.83-11.24 27.36-10.78L27.36-10.78 27.36 0ZM61.13-14.9L53.17 3.87Q52.97 4.31 52.68 4.52 52.39 4.73 51.76 4.73L51.76 4.73 48.43 4.73 51.3-1.31 45.35-14.9 49.29-14.9Q49.81-14.9 50.09-14.67 50.38-14.44 50.5-14.13L50.5-14.13 52.94-7.7Q53.28-6.81 53.5-5.92L53.5-5.92Q53.64-6.38 53.82-6.83 53.99-7.27 54.15-7.73L54.15-7.73 56.36-14.13Q56.47-14.46 56.81-14.68 57.15-14.9 57.54-14.9L57.54-14.9 61.13-14.9ZM76.88 0L68.52 0 68.52-20.94 76.22-20.94Q78.39-20.94 79.91-20.53 81.44-20.13 82.4-19.4 83.36-18.67 83.8-17.62 84.24-16.57 84.24-15.28L84.24-15.28Q84.24-14.57 84.04-13.92 83.84-13.26 83.4-12.69 82.97-12.11 82.3-11.65 81.62-11.18 80.67-10.84L80.67-10.84Q82.74-10.33 83.73-9.2 84.73-8.08 84.73-6.31L84.73-6.31Q84.73-4.97 84.21-3.82 83.69-2.67 82.69-1.82 81.69-0.96 80.23-0.48 78.76 0 76.88 0L76.88 0ZM76.77-8.88L73.37-8.88 73.37-3.66 76.79-3.66Q77.76-3.66 78.37-3.91 78.98-4.15 79.32-4.54 79.67-4.93 79.8-5.42 79.93-5.91 79.93-6.41L79.93-6.41Q79.93-6.98 79.78-7.44 79.62-7.9 79.26-8.22 78.89-8.54 78.29-8.71 77.68-8.88 76.77-8.88L76.77-8.88ZM73.37-17.3L73.37-12.13 75.9-12.13Q76.71-12.13 77.35-12.24 78-12.36 78.45-12.65 78.91-12.93 79.14-13.44 79.38-13.94 79.38-14.7L79.38-14.7Q79.38-15.45 79.19-15.94 79.01-16.44 78.62-16.74 78.23-17.04 77.63-17.17 77.04-17.3 76.22-17.3L76.22-17.3 73.37-17.3ZM87.08-14.9L91.54-14.9 91.54-5.45Q91.54-4.34 92.04-3.74 92.54-3.13 93.52-3.13L93.52-3.13Q94.25-3.13 94.89-3.43 95.53-3.74 96.14-4.28L96.14-4.28 96.14-14.9 100.59-14.9 100.59 0 97.83 0Q97 0 96.74-0.75L96.74-0.75 96.47-1.61Q96.04-1.19 95.58-0.86 95.12-0.52 94.59-0.28 94.07-0.04 93.46 0.09 92.86 0.23 92.14 0.23L92.14 0.23Q90.92 0.23 89.98-0.19 89.04-0.62 88.39-1.38 87.74-2.14 87.41-3.18 87.08-4.21 87.08-5.45L87.08-5.45 87.08-14.9ZM108.49 0L104.04 0 104.04-14.9 106.8-14.9Q107.22-14.9 107.5-14.71 107.78-14.53 107.89-14.15L107.89-14.15 108.15-13.29Q108.58-13.69 109.04-14.04 109.5-14.38 110.02-14.62 110.55-14.86 111.16-15 111.77-15.13 112.49-15.13L112.49-15.13Q113.71-15.13 114.65-14.71 115.59-14.28 116.24-13.53 116.89-12.78 117.22-11.73 117.55-10.69 117.55-9.47L117.55-9.47 117.55 0 113.09 0 113.09-9.47Q113.09-10.56 112.59-11.17 112.09-11.78 111.11-11.78L111.11-11.78Q110.38-11.78 109.73-11.47 109.08-11.15 108.49-10.62L108.49-10.62 108.49 0ZM133.93 0L131.17 0Q130.75 0 130.47-0.19 130.19-0.37 130.08-0.75L130.08-0.75 129.73-1.88Q129.29-1.41 128.8-1.02 128.31-0.63 127.74-0.35 127.18-0.07 126.52 0.08 125.87 0.23 125.11 0.23L125.11 0.23Q123.94 0.23 122.95-0.29 121.96-0.8 121.24-1.78 120.52-2.76 120.11-4.17 119.7-5.59 119.7-7.4L119.7-7.4Q119.7-9.07 120.16-10.5 120.62-11.93 121.46-12.97 122.3-14.01 123.48-14.6 124.66-15.19 126.08-15.19L126.08-15.19Q127.23-15.19 128.03-14.85 128.83-14.51 129.47-13.97L129.47-13.97 129.47-21.51 133.93-21.51 133.93 0ZM126.66-3.19L126.66-3.19Q127.15-3.19 127.54-3.28 127.94-3.38 128.27-3.55 128.6-3.72 128.89-3.98 129.19-4.24 129.47-4.58L129.47-4.58 129.47-10.91Q128.96-11.47 128.38-11.69 127.79-11.91 127.15-11.91L127.15-11.91Q126.53-11.91 126.01-11.67 125.49-11.42 125.11-10.89 124.73-10.35 124.52-9.48 124.3-8.62 124.3-7.4L124.3-7.4Q124.3-6.22 124.47-5.42 124.65-4.61 124.96-4.12 125.26-3.62 125.7-3.41 126.13-3.19 126.66-3.19ZM142.64-15.16L142.64-15.16Q143.59-15.16 144.43-14.97 145.27-14.79 145.99-14.44L145.99-14.44 150.48-14.44 150.48-12.82Q150.48-12.44 150.28-12.23 150.07-12.01 149.56-11.9L149.56-11.9 148.47-11.65Q148.67-11.01 148.67-10.32L148.67-10.32Q148.67-9.2 148.21-8.31 147.74-7.41 146.93-6.79 146.12-6.16 145.01-5.83 143.9-5.49 142.64-5.49L142.64-5.49Q141.93-5.49 141.32-5.58L141.32-5.58Q140.83-5.29 140.83-4.91L140.83-4.91Q140.83-4.54 141.22-4.38 141.62-4.21 142.26-4.15 142.91-4.08 143.74-4.06 144.58-4.04 145.44-3.96 146.3-3.88 147.14-3.69 147.97-3.51 148.62-3.09 149.26-2.67 149.66-1.98 150.05-1.28 150.05-0.2L150.05-0.2Q150.05 0.8 149.56 1.77 149.08 2.73 148.13 3.48 147.18 4.22 145.8 4.68 144.42 5.13 142.64 5.13L142.64 5.13Q140.88 5.13 139.61 4.8 138.34 4.47 137.5 3.93 136.66 3.39 136.26 2.69 135.86 1.98 135.86 1.22L135.86 1.22Q135.86 0.23 136.46-0.45 137.06-1.14 138.11-1.52L138.11-1.52Q137.61-1.85 137.31-2.37 137-2.89 137-3.68L137-3.68Q137-4.01 137.12-4.38 137.23-4.74 137.48-5.09 137.72-5.43 138.1-5.75 138.47-6.06 138.99-6.31L138.99-6.31Q137.82-6.93 137.16-7.95 136.49-8.97 136.49-10.32L136.49-10.32Q136.49-11.44 136.96-12.34 137.44-13.23 138.26-13.86 139.09-14.49 140.21-14.82 141.33-15.16 142.64-15.16ZM145.94 0.55L145.94 0.55Q145.94 0.19 145.72-0.03 145.5-0.24 145.12-0.37 144.74-0.5 144.23-0.56 143.72-0.62 143.13-0.65 142.54-0.68 141.9-0.7 141.27-0.72 140.65-0.79L140.65-0.79Q140.24-0.5 139.97-0.15 139.71 0.2 139.71 0.65L139.71 0.65Q139.71 0.96 139.84 1.22 139.98 1.48 140.32 1.67 140.67 1.85 141.25 1.96 141.83 2.07 142.72 2.07L142.72 2.07Q143.69 2.07 144.3 1.95 144.92 1.84 145.29 1.64 145.66 1.44 145.8 1.16 145.94 0.88 145.94 0.55ZM142.64-8.23L142.64-8.23Q143.74-8.23 144.24-8.79 144.74-9.34 144.74-10.22L144.74-10.22Q144.74-11.12 144.24-11.64 143.74-12.16 142.64-12.16L142.64-12.16Q141.53-12.16 141.04-11.64 140.54-11.12 140.54-10.22L140.54-10.22Q140.54-9.79 140.66-9.43 140.78-9.07 141.04-8.8 141.3-8.54 141.7-8.38 142.09-8.23 142.64-8.23ZM152.12-14.9L156.58-14.9 156.58-5.45Q156.58-4.34 157.08-3.74 157.58-3.13 158.56-3.13L158.56-3.13Q159.29-3.13 159.93-3.43 160.57-3.74 161.18-4.28L161.18-4.28 161.18-14.9 165.63-14.9 165.63 0 162.87 0Q162.04 0 161.78-0.75L161.78-0.75 161.51-1.61Q161.07-1.19 160.61-0.86 160.15-0.52 159.63-0.28 159.11-0.04 158.5 0.09 157.9 0.23 157.18 0.23L157.18 0.23Q155.96 0.23 155.02-0.19 154.08-0.62 153.43-1.38 152.78-2.14 152.45-3.18 152.12-4.21 152.12-5.45L152.12-5.45 152.12-14.9ZM179.2-13.21L178.19-11.64Q178.02-11.37 177.82-11.25 177.63-11.14 177.33-11.14L177.33-11.14Q177.01-11.14 176.69-11.27 176.38-11.41 176.01-11.57 175.65-11.73 175.19-11.86 174.73-12 174.14-12L174.14-12Q173.29-12 172.84-11.68 172.38-11.35 172.38-10.78L172.38-10.78Q172.38-10.36 172.68-10.09 172.97-9.81 173.46-9.61 173.95-9.4 174.57-9.21 175.19-9.02 175.83-8.79 176.48-8.56 177.1-8.26 177.72-7.95 178.2-7.49 178.69-7.04 178.99-6.39 179.28-5.75 179.28-4.84L179.28-4.84Q179.28-3.74 178.88-2.8 178.48-1.87 177.68-1.19 176.88-0.52 175.71-0.14 174.54 0.23 173.02 0.23L173.02 0.23Q172.25 0.23 171.49 0.09 170.73-0.06 170.02-0.3 169.31-0.55 168.71-0.88 168.1-1.22 167.67-1.61L167.67-1.61 168.71-3.25Q168.89-3.54 169.15-3.7 169.41-3.87 169.83-3.87L169.83-3.87Q170.21-3.87 170.52-3.69 170.83-3.52 171.19-3.32 171.55-3.12 172.03-2.95 172.51-2.77 173.25-2.77L173.25-2.77Q173.76-2.77 174.12-2.88 174.48-2.99 174.7-3.18 174.91-3.36 175.01-3.59 175.11-3.82 175.11-4.07L175.11-4.07Q175.11-4.51 174.81-4.8 174.51-5.09 174.02-5.3 173.53-5.5 172.91-5.68 172.28-5.86 171.64-6.09 170.99-6.32 170.36-6.65 169.74-6.97 169.25-7.47 168.76-7.96 168.46-8.68 168.16-9.4 168.16-10.42L168.16-10.42Q168.16-11.37 168.53-12.22 168.89-13.08 169.62-13.72 170.36-14.37 171.46-14.75 172.57-15.13 174.05-15.13L174.05-15.13Q174.86-15.13 175.61-14.99 176.36-14.84 177.03-14.59 177.69-14.33 178.23-13.97 178.78-13.62 179.2-13.21L179.2-13.21Z" transform="translate(-0.030000001192092896, 21.510000228881836)"></path></g> </g></g> <g fill-rule="" class="tp-slogan iconsvg-slogansvg" fill="#1c085d" transform="translate(5.349998474121094,32.64000129699707)"><rect width="0"></rect> <rect x="171.5500030517578" width="0"></rect> <g transform="translate(0,0)"><g transform="scale(1)"><path d="M1.08-7.87L1.08 0L2.08 0L2.08-3.53L5.08-3.53L5.08-4.37L2.08-4.37L2.08-7.03L5.62-7.03L5.62-7.87ZM9.79 0.14C10.29 0.14 10.74 0.05 11.15-0.14C11.57-0.34 11.92-0.61 12.22-0.97C12.52-1.32 12.75-1.75 12.92-2.26C13.08-2.77 13.16-3.34 13.16-3.97C13.16-4.60 13.08-5.16 12.92-5.66C12.75-6.16 12.52-6.58 12.22-6.93C11.92-7.28 11.57-7.55 11.15-7.73C10.74-7.92 10.29-8.02 9.79-8.02C9.30-8.02 8.84-7.92 8.43-7.74C8.02-7.56 7.66-7.29 7.37-6.94C7.07-6.59 6.84-6.17 6.68-5.67C6.51-5.17 6.43-4.60 6.43-3.97C6.43-3.34 6.51-2.77 6.68-2.26C6.84-1.75 7.07-1.32 7.37-0.97C7.66-0.61 8.02-0.34 8.43-0.14C8.84 0.05 9.30 0.14 9.79 0.14ZM9.79-0.73C9.44-0.73 9.12-0.81 8.84-0.96C8.55-1.11 8.31-1.33 8.11-1.61C7.90-1.90 7.74-2.24 7.63-2.63C7.52-3.03 7.46-3.48 7.46-3.97C7.46-4.46 7.52-4.90 7.63-5.29C7.74-5.68 7.90-6.02 8.11-6.29C8.31-6.56 8.55-6.77 8.84-6.92C9.12-7.07 9.44-7.14 9.79-7.14C10.14-7.14 10.46-7.07 10.75-6.92C11.03-6.77 11.27-6.56 11.48-6.29C11.68-6.02 11.84-5.68 11.95-5.29C12.06-4.90 12.12-4.46 12.12-3.97C12.12-3.48 12.06-3.03 11.95-2.63C11.84-2.24 11.68-1.90 11.48-1.61C11.27-1.33 11.03-1.11 10.75-0.96C10.46-0.81 10.14-0.73 9.79-0.73ZM15.85-4.14L15.85-7.07L17.17-7.07C17.79-7.07 18.26-6.96 18.59-6.76C18.92-6.55 19.08-6.18 19.08-5.66C19.08-5.15 18.92-4.77 18.59-4.52C18.26-4.27 17.79-4.14 17.17-4.14ZM19.18 0L20.30 0L18.31-3.43C18.85-3.57 19.28-3.82 19.60-4.19C19.92-4.56 20.08-5.05 20.08-5.66C20.08-6.07 20.01-6.42 19.87-6.70C19.74-6.98 19.55-7.20 19.30-7.38C19.06-7.56 18.77-7.68 18.43-7.76C18.09-7.83 17.72-7.87 17.32-7.87L14.86-7.87L14.86 0L15.85 0L15.85-3.32L17.28-3.32ZM24.28-1.72L23.68-1.02C24.02-0.66 24.43-0.38 24.90-0.17C25.37 0.04 25.88 0.14 26.44 0.14C26.85 0.14 27.22 0.09 27.55-0.03C27.88-0.15 28.16-0.31 28.39-0.51C28.62-0.71 28.80-0.95 28.93-1.22C29.05-1.50 29.11-1.79 29.11-2.10C29.11-2.39 29.07-2.64 28.99-2.86C28.90-3.08 28.79-3.27 28.64-3.44C28.50-3.60 28.33-3.75 28.13-3.87C27.93-3.99 27.72-4.10 27.49-4.20L26.38-4.68C26.22-4.74 26.06-4.81 25.91-4.89C25.76-4.97 25.62-5.05 25.49-5.15C25.36-5.25 25.26-5.37 25.18-5.50C25.11-5.63 25.07-5.80 25.07-5.99C25.07-6.35 25.20-6.63 25.47-6.83C25.74-7.04 26.09-7.14 26.53-7.14C26.90-7.14 27.23-7.07 27.52-6.94C27.81-6.81 28.08-6.63 28.32-6.40L28.86-7.04C28.58-7.33 28.24-7.57 27.84-7.75C27.44-7.93 27.00-8.02 26.53-8.02C26.17-8.02 25.84-7.96 25.54-7.86C25.24-7.76 24.98-7.61 24.76-7.42C24.54-7.23 24.37-7.01 24.25-6.76C24.12-6.50 24.06-6.22 24.06-5.93C24.06-5.64 24.11-5.39 24.20-5.17C24.30-4.95 24.42-4.76 24.58-4.60C24.73-4.44 24.90-4.30 25.09-4.19C25.28-4.08 25.47-3.98 25.66-3.90L26.78-3.41C26.97-3.32 27.14-3.24 27.30-3.16C27.46-3.08 27.60-2.99 27.71-2.89C27.83-2.79 27.92-2.67 27.99-2.53C28.06-2.39 28.09-2.22 28.09-2.02C28.09-1.63 27.95-1.32 27.66-1.09C27.37-0.85 26.97-0.73 26.45-0.73C26.04-0.73 25.65-0.82 25.27-1.00C24.89-1.18 24.56-1.42 24.28-1.72ZM32.05-7.03L32.05 0L33.06 0L33.06-7.03L35.44-7.03L35.44-7.87L29.68-7.87L29.68-7.03ZM39.72-3.20L37.36-3.20L37.73-4.40C37.87-4.84 38.01-5.28 38.14-5.72C38.26-6.15 38.39-6.60 38.51-7.06L38.56-7.06C38.68-6.60 38.81-6.15 38.94-5.72C39.07-5.28 39.20-4.84 39.35-4.40ZM39.97-2.40L40.72 0L41.78 0L39.12-7.87L37.99-7.87L35.33 0L36.35 0L37.10-2.40ZM44.05-7.03L44.05 0L45.06 0L45.06-7.03L47.44-7.03L47.44-7.87L41.68-7.87L41.68-7.03ZM48.85-7.87L48.85 0L53.51 0L53.51-0.85L49.85-0.85L49.85-3.71L52.84-3.71L52.84-4.56L49.85-4.56L49.85-7.03L53.39-7.03L53.39-7.87ZM57.60-7.87L57.60 0L60.11 0C60.55 0 60.95-0.05 61.32-0.14C61.69-0.24 62.00-0.38 62.27-0.58C62.53-0.77 62.74-1.01 62.88-1.30C63.02-1.58 63.10-1.92 63.10-2.30C63.10-2.85 62.94-3.28 62.62-3.59C62.30-3.90 61.85-4.10 61.27-4.19L61.27-4.24C61.74-4.36 62.08-4.57 62.30-4.89C62.53-5.21 62.64-5.56 62.64-5.95C62.64-6.30 62.57-6.59 62.44-6.83C62.31-7.08 62.13-7.28 61.89-7.43C61.65-7.58 61.37-7.69 61.04-7.76C60.71-7.84 60.34-7.87 59.94-7.87ZM59.76-4.51L58.60-4.51L58.60-7.08L59.81-7.08C60.42-7.08 60.89-6.99 61.19-6.80C61.50-6.61 61.66-6.30 61.66-5.87C61.66-5.43 61.51-5.09 61.22-4.86C60.93-4.63 60.44-4.51 59.76-4.51ZM59.96-0.79L58.60-0.79L58.60-3.77L59.96-3.77C60.66-3.77 61.19-3.65 61.56-3.43C61.93-3.20 62.11-2.84 62.11-2.35C62.11-1.82 61.92-1.42 61.55-1.17C61.17-0.92 60.64-0.79 59.96-0.79ZM67.56 0.14C68.06 0.14 68.51 0.05 68.92-0.14C69.33-0.34 69.69-0.61 69.99-0.97C70.29-1.32 70.52-1.75 70.69-2.26C70.85-2.77 70.93-3.34 70.93-3.97C70.93-4.60 70.85-5.16 70.69-5.66C70.52-6.16 70.29-6.58 69.99-6.93C69.69-7.28 69.33-7.55 68.92-7.73C68.51-7.92 68.06-8.02 67.56-8.02C67.06-8.02 66.61-7.92 66.20-7.74C65.79-7.56 65.43-7.29 65.14-6.94C64.84-6.59 64.61-6.17 64.45-5.67C64.28-5.17 64.20-4.60 64.20-3.97C64.20-3.34 64.28-2.77 64.45-2.26C64.61-1.75 64.84-1.32 65.14-0.97C65.43-0.61 65.79-0.34 66.20-0.14C66.61 0.05 67.06 0.14 67.56 0.14ZM67.56-0.73C67.21-0.73 66.89-0.81 66.61-0.96C66.32-1.11 66.08-1.33 65.87-1.61C65.67-1.90 65.51-2.24 65.40-2.63C65.29-3.03 65.23-3.48 65.23-3.97C65.23-4.46 65.29-4.90 65.40-5.29C65.51-5.68 65.67-6.02 65.87-6.29C66.08-6.56 66.32-6.77 66.61-6.92C66.89-7.07 67.21-7.14 67.56-7.14C67.91-7.14 68.23-7.07 68.51-6.92C68.80-6.77 69.04-6.56 69.25-6.29C69.45-6.02 69.61-5.68 69.72-5.29C69.83-4.90 69.89-4.46 69.89-3.97C69.89-3.48 69.83-3.03 69.72-2.63C69.61-2.24 69.45-1.90 69.25-1.61C69.04-1.33 68.80-1.11 68.51-0.96C68.23-0.81 67.91-0.73 67.56-0.73ZM75.85-3.20L73.49-3.20L73.86-4.40C74.00-4.84 74.14-5.28 74.27-5.72C74.40-6.15 74.52-6.60 74.64-7.06L74.69-7.06C74.82-6.60 74.94-6.15 75.07-5.72C75.20-5.28 75.34-4.84 75.48-4.40ZM76.10-2.40L76.85 0L77.92 0L75.25-7.87L74.12-7.87L71.46 0L72.48 0L73.24-2.40ZM80.03-4.14L80.03-7.07L81.35-7.07C81.96-7.07 82.44-6.96 82.76-6.76C83.09-6.55 83.26-6.18 83.26-5.66C83.26-5.15 83.09-4.77 82.76-4.52C82.44-4.27 81.96-4.14 81.35-4.14ZM83.35 0L84.48 0L82.49-3.43C83.02-3.57 83.45-3.82 83.77-4.19C84.09-4.56 84.25-5.05 84.25-5.66C84.25-6.07 84.18-6.42 84.05-6.70C83.91-6.98 83.72-7.20 83.48-7.38C83.23-7.56 82.94-7.68 82.60-7.76C82.26-7.83 81.89-7.87 81.49-7.87L79.03-7.87L79.03 0L80.03 0L80.03-3.32L81.46-3.32ZM86.00-7.87L86.00 0L88.02 0C88.61 0 89.14-0.09 89.59-0.27C90.05-0.45 90.43-0.71 90.74-1.05C91.06-1.39 91.29-1.81 91.45-2.30C91.61-2.79 91.69-3.35 91.69-3.97C91.69-5.23 91.38-6.19 90.74-6.86C90.11-7.54 89.19-7.87 87.97-7.87ZM87.90-0.82L87-0.82L87-7.06L87.90-7.06C88.82-7.06 89.51-6.79 89.97-6.26C90.43-5.74 90.66-4.97 90.66-3.97C90.66-2.97 90.43-2.20 89.97-1.64C89.51-1.09 88.82-0.82 87.90-0.82ZM98.71 0.14C99.21 0.14 99.66 0.05 100.07-0.14C100.49-0.34 100.84-0.61 101.14-0.97C101.44-1.32 101.67-1.75 101.84-2.26C102.00-2.77 102.08-3.34 102.08-3.97C102.08-4.60 102.00-5.16 101.84-5.66C101.67-6.16 101.44-6.58 101.14-6.93C100.84-7.28 100.49-7.55 100.07-7.73C99.66-7.92 99.21-8.02 98.71-8.02C98.22-8.02 97.76-7.92 97.35-7.74C96.94-7.56 96.58-7.29 96.29-6.94C95.99-6.59 95.76-6.17 95.60-5.67C95.43-5.17 95.35-4.60 95.35-3.97C95.35-3.34 95.43-2.77 95.60-2.26C95.76-1.75 95.99-1.32 96.29-0.97C96.58-0.61 96.94-0.34 97.35-0.14C97.76 0.05 98.22 0.14 98.71 0.14ZM98.71-0.73C98.36-0.73 98.04-0.81 97.76-0.96C97.47-1.11 97.23-1.33 97.03-1.61C96.82-1.90 96.66-2.24 96.55-2.63C96.44-3.03 96.38-3.48 96.38-3.97C96.38-4.46 96.44-4.90 96.55-5.29C96.66-5.68 96.82-6.02 97.03-6.29C97.23-6.56 97.47-6.77 97.76-6.92C98.04-7.07 98.36-7.14 98.71-7.14C99.06-7.14 99.38-7.07 99.67-6.92C99.95-6.77 100.19-6.56 100.40-6.29C100.60-6.02 100.76-5.68 100.87-5.29C100.98-4.90 101.04-4.46 101.04-3.97C101.04-3.48 100.98-3.03 100.87-2.63C100.76-2.24 100.60-1.90 100.40-1.61C100.19-1.33 99.95-1.11 99.67-0.96C99.38-0.81 99.06-0.73 98.71-0.73ZM103.78-7.87L103.78 0L104.77 0L104.77-3.53L107.77-3.53L107.77-4.37L104.77-4.37L104.77-7.03L108.31-7.03L108.31-7.87ZM112.13-7.87L112.13 0L116.78 0L116.78-0.85L113.12-0.85L113.12-3.71L116.11-3.71L116.11-4.56L113.12-4.56L113.12-7.03L116.66-7.03L116.66-7.87ZM118.45-7.87L118.45 0L120.47 0C121.06 0 121.58-0.09 122.04-0.27C122.50-0.45 122.88-0.71 123.19-1.05C123.50-1.39 123.74-1.81 123.90-2.30C124.06-2.79 124.14-3.35 124.14-3.97C124.14-5.23 123.82-6.19 123.19-6.86C122.56-7.54 121.64-7.87 120.42-7.87ZM120.35-0.82L119.45-0.82L119.45-7.06L120.35-7.06C121.27-7.06 121.96-6.79 122.42-6.26C122.88-5.74 123.11-4.97 123.11-3.97C123.11-2.97 122.88-2.20 122.42-1.64C121.96-1.09 121.27-0.82 120.35-0.82ZM125.80-7.87L125.80-3.25C125.80-2.62 125.87-2.09 126.01-1.66C126.16-1.22 126.35-0.87 126.61-0.61C126.86-0.34 127.16-0.15 127.51-0.03C127.85 0.09 128.23 0.14 128.63 0.14C129.03 0.14 129.40 0.09 129.74-0.03C130.09-0.15 130.39-0.34 130.64-0.61C130.89-0.87 131.09-1.22 131.23-1.66C131.38-2.09 131.45-2.62 131.45-3.25L131.45-7.87L130.49-7.87L130.49-3.23C130.49-2.76 130.44-2.36 130.34-2.04C130.25-1.72 130.12-1.46 129.95-1.27C129.78-1.08 129.58-0.94 129.36-0.86C129.14-0.77 128.89-0.73 128.63-0.73C128.37-0.73 128.13-0.77 127.91-0.86C127.68-0.94 127.49-1.08 127.33-1.27C127.16-1.46 127.03-1.72 126.94-2.04C126.84-2.36 126.79-2.76 126.79-3.23L126.79-7.87ZM133.12-3.94C133.12-3.30 133.20-2.72 133.37-2.21C133.55-1.71 133.79-1.28 134.09-0.93C134.40-0.58 134.77-0.32 135.19-0.13C135.61 0.05 136.06 0.14 136.56 0.14C137.06 0.14 137.51 0.04 137.90-0.16C138.30-0.36 138.65-0.64 138.96-1.00L138.40-1.61C138.14-1.33 137.87-1.11 137.59-0.96C137.30-0.81 136.97-0.73 136.58-0.73C136.21-0.73 135.87-0.81 135.57-0.96C135.27-1.11 135.02-1.33 134.81-1.61C134.60-1.89 134.44-2.23 134.32-2.62C134.21-3.02 134.15-3.46 134.15-3.96C134.15-4.45 134.21-4.89 134.33-5.28C134.45-5.67 134.62-6.01 134.83-6.28C135.05-6.56 135.31-6.77 135.61-6.92C135.92-7.07 136.26-7.14 136.63-7.14C136.97-7.14 137.26-7.07 137.51-6.94C137.77-6.81 138.00-6.63 138.20-6.41L138.77-7.04C138.54-7.30 138.24-7.53 137.88-7.72C137.52-7.92 137.10-8.02 136.62-8.02C136.12-8.02 135.65-7.92 135.22-7.73C134.79-7.55 134.42-7.28 134.11-6.92C133.80-6.57 133.56-6.14 133.38-5.64C133.20-5.14 133.12-4.57 133.12-3.94ZM143.77-3.20L141.41-3.20L141.78-4.40C141.92-4.84 142.06-5.28 142.19-5.72C142.32-6.15 142.44-6.60 142.56-7.06L142.61-7.06C142.74-6.60 142.86-6.15 142.99-5.72C143.12-5.28 143.26-4.84 143.40-4.40ZM144.02-2.40L144.77 0L145.84 0L143.17-7.87L142.04-7.87L139.38 0L140.40 0L141.16-2.40ZM148.10-7.03L148.10 0L149.11 0L149.11-7.03L151.49-7.03L151.49-7.87L145.73-7.87L145.73-7.03ZM152.90-7.87L152.90 0L153.90 0L153.90-7.87ZM158.96 0.14C159.46 0.14 159.91 0.05 160.33-0.14C160.74-0.34 161.09-0.61 161.39-0.97C161.69-1.32 161.93-1.75 162.09-2.26C162.25-2.77 162.34-3.34 162.34-3.97C162.34-4.60 162.25-5.16 162.09-5.66C161.93-6.16 161.69-6.58 161.39-6.93C161.09-7.28 160.74-7.55 160.33-7.73C159.91-7.92 159.46-8.02 158.96-8.02C158.47-8.02 158.01-7.92 157.60-7.74C157.19-7.56 156.84-7.29 156.54-6.94C156.24-6.59 156.01-6.17 155.85-5.67C155.69-5.17 155.60-4.60 155.60-3.97C155.60-3.34 155.69-2.77 155.85-2.26C156.01-1.75 156.24-1.32 156.54-0.97C156.84-0.61 157.19-0.34 157.60-0.14C158.01 0.05 158.47 0.14 158.96 0.14ZM158.96-0.73C158.61-0.73 158.29-0.81 158.01-0.96C157.73-1.11 157.48-1.33 157.28-1.61C157.07-1.90 156.92-2.24 156.80-2.63C156.69-3.03 156.64-3.48 156.64-3.97C156.64-4.46 156.69-4.90 156.80-5.29C156.92-5.68 157.07-6.02 157.28-6.29C157.48-6.56 157.73-6.77 158.01-6.92C158.29-7.07 158.61-7.14 158.96-7.14C159.32-7.14 159.63-7.07 159.92-6.92C160.20-6.77 160.45-6.56 160.65-6.29C160.85-6.02 161.01-5.68 161.12-5.29C161.24-4.90 161.29-4.46 161.29-3.97C161.29-3.48 161.24-3.03 161.12-2.63C161.01-2.24 160.85-1.90 160.65-1.61C160.45-1.33 160.20-1.11 159.92-0.96C159.63-0.81 159.32-0.73 158.96-0.73ZM164.03-7.87L164.03 0L164.98 0L164.98-4.12C164.98-4.53 164.96-4.95 164.93-5.36C164.91-5.77 164.88-6.18 164.84-6.58L164.89-6.58L165.74-4.96L168.60 0L169.63 0L169.63-7.87L168.68-7.87L168.68-3.80C168.68-3.39 168.70-2.97 168.73-2.54C168.75-2.11 168.78-1.70 168.80-1.30L168.76-1.30L167.90-2.93L165.06-7.87Z" transform="translate(-1.08, 8.016)"></path></g></g></g></g></g><defs v-gra="od"></defs></g></svg>