<svg xmlns="http://www.w3.org/2000/svg" width="360" height="80" viewBox="0 0 360 80" role="img" aria-labelledby="title desc">
  <title id="title">Amy Bundgus for State Board of Education</title>
  <desc id="desc">Logo with Texas-inspired star and education book mark in red, white, and blue.</desc>
  <defs>
    <linearGradient id="gBlue" x1="0" y1="0" x2="1" y2="1">
      <stop offset="0%" stop-color="#0a2e63"/>
      <stop offset="100%" stop-color="#0b274f"/>
    </linearGradient>
  </defs>
  <!-- Emblem -->
  <g transform="translate(8,8)">
    <g transform="translate(0.372,0) scale(0.372093)">
      <path fill="#EB051F" opacity="1.000000" stroke="none" d="M118.068924,51.347450 C128.295517,50.204296 137.895569,50.169464 146.581680,55.630676 C148.133698,56.606461 150.157883,58.139305 150.403900,59.666298 C151.738556,67.950256 152.583420,76.313126 153.670013,85.249397 C148.963623,85.508713 143.796753,85.304474 138.822891,86.187469 C132.153229,87.371521 125.653946,89.488899 119.034393,90.999008 C117.266327,91.402359 115.114395,91.594032 113.500145,90.961067 C103.258110,86.945007 92.671951,85.405113 81.724297,85.618965 C78.559532,85.680786 76.909370,86.701752 76.169518,89.915382 C74.725426,96.187965 72.908699,102.374756 71.162193,108.911743 C69.350662,108.115738 68.021950,107.545929 66.704819,106.950531 C62.586624,105.088936 59.503323,105.990189 56.903500,109.876549 C51.655071,117.722206 51.602707,117.477386 43.228165,112.913200 C38.008305,110.068336 34.719181,106.154045 32.169487,100.699577 C30.008005,96.075592 25.894356,92.323921 22.452913,88.352303 C20.064655,85.596115 17.169210,83.270599 14.865149,80.454239 C13.821552,79.178596 12.880303,76.899590 13.345357,75.592728 C13.735795,74.495552 16.216661,73.607941 17.801466,73.557777 C27.283562,73.257629 36.784714,72.914848 46.257595,73.234596 C51.142864,73.399490 52.006996,71.594566 51.934410,67.237411 C51.695934,52.922306 51.826492,38.600697 51.855244,24.281666 C51.868465,17.696255 52.364738,17.233782 59.010357,17.216154 C65.670349,17.198488 72.332802,17.322042 78.989624,17.175886 C83.381485,17.079460 85.463882,18.824081 85.340714,23.357327 C85.205147,28.346920 85.423302,33.345089 85.402809,38.339172 C85.387039,42.181984 86.882744,44.547626 90.905640,45.387688 C99.824303,47.250084 108.691246,49.360161 118.068924,51.347450 z"/>
      <path fill="#EB051F" opacity="1.000000" stroke="none" d="M92.777054,91.134750 C99.793106,92.932129 106.312645,94.862068 112.922813,96.403236 C115.255302,96.947052 118.104927,97.280258 120.210724,96.438904 C128.984451,92.933418 137.926605,90.551437 147.408508,91.230667 C149.134506,91.354309 151.820709,92.828789 152.232162,94.220963 C155.624969,105.700798 158.591736,117.306732 161.653366,128.883514 C161.768326,129.318176 161.532883,129.845505 161.348434,131.083145 C154.182297,131.083145 146.805145,130.244720 139.719055,131.321609 C132.789032,132.374756 126.171745,135.433731 119.379204,137.486588 C117.976830,137.910416 115.996346,138.439316 114.976952,137.804443 C103.029961,130.363892 89.944305,129.489761 76.442589,130.674423 C75.014893,130.799683 73.577766,130.817413 71.222885,130.928543 C73.680847,121.275620 75.961266,112.310646 78.250839,103.348015 C78.415268,102.704323 78.679817,102.086090 78.842026,101.441971 C81.843040,89.525276 79.080658,90.930092 92.777054,91.134750 z"/>
      <path fill="#0a2e63" opacity="1.000000" stroke="none" d="M90.087143,146.847046 C85.624596,144.379990 86.917755,140.565506 86.662384,136.549164 C94.146965,135.867599 101.187096,137.164917 107.000542,140.748276 C113.986481,145.054337 120.124626,144.782288 126.546585,140.691849 C132.984375,136.591309 140.060989,137.078339 146.785004,137.129700 C148.524216,145.524185 142.960602,148.220245 136.681259,149.405228 C121.129639,152.340012 105.593529,152.775650 90.087143,146.847046 z"/>
    </g>
  </g>

  <!-- Text -->
  <g transform="translate(88,10)" fill="#0a2e63" font-family="Montserrat, 'Source Sans 3', Arial, sans-serif">
    <text x="0" y="24" font-weight="700" font-size="28">Amy Bundgus</text>
    <text x="0" y="48" font-weight="600" font-size="16" fill="#0b274f">for State Board of Education</text>
  </g>
</svg>


